Coordinates
version=1
nRows=12
nColumns=24
inDegrees=yes

Units are S.I. units (second, meters, Newtons, ...)
Angles are in degrees.

endheader
time	pelvis_tilt	pelvis_list	pelvis_rotation	pelvis_tx	pelvis_ty	pelvis_tz	hip_flexion_r	hip_adduction_r	hip_rotation_r	knee_angle_r	ankle_angle_r	subtalar_angle_r	mtp_angle_r	hip_flexion_l	hip_adduction_l	hip_rotation_l	knee_angle_l	ankle_angle_l	subtalar_angle_l	mtp_angle_l	lumbar_extension	lumbar_bending	lumbar_rotation
      4.53000000	    -10.38919433	      8.12157470	     -0.01904570	     -0.22632223	     -0.02192725	      0.60677196	     25.02005247	    -11.91356089	     -3.67427390	    -64.85223998	     -4.03271727	     -1.18247975	     13.47302424	     20.42514553	     11.25041468	    -14.25038478	    -20.98708599	      5.56423670	      9.10819200	      2.42328110	      9.83277290	     -9.39940828	      0.70075918
      4.53500000	    -10.38815700	      7.82088510	      0.39079792	     -0.22037375	     -0.02086335	      0.60627677	     25.72939939	    -11.74384048	     -4.14756653	    -64.45371756	     -3.73072454	     -0.81669156	     13.58274455	     19.67818726	     11.21077214	    -13.48305242	    -20.45751781	      5.68003332	      8.98133431	      2.22794975	      9.74612450	     -9.17507155	      0.07428933
      4.54000000	    -10.37209082	      7.53883415	      0.80693963	     -0.21439852	     -0.01983309	      0.60577355	     26.39897439	    -11.60531660	     -4.64215350	    -63.97326283	     -3.47187105	     -0.54112936	     13.68056459	     18.90240450	     11.18934708	    -12.65447456	    -19.90318270	      5.76643309	      8.78077722	      1.96249487	      9.65379782	     -8.97261559	     -0.50762422
      4.54500000	    -10.39524802	      7.23059960	      1.19544596	     -0.20849287	     -0.01893192	      0.60535706	     27.10782909	    -11.40615471	     -5.07092764	    -63.42482083	     -3.23839010	     -0.24451766	     13.75280721	     18.21012479	     11.08396396	    -12.01779571	    -19.41404775	      5.89903465	      8.74621653	      1.82408052	      9.59830178	     -8.73807064	     -1.10813696
      4.55000000	    -10.35185337	      6.99525085	      1.61728112	     -0.20261360	     -0.01805188	      0.60489999	     27.73334154	    -11.31513068	     -5.54393109	    -62.83130798	     -3.07606245	     -0.16266059	     13.78185115	     17.41113535	     11.08431056	    -11.14558861	    -18.85529868	      5.99958673	      8.51646683	      1.53239064	      9.45685297	     -8.59071984	     -1.74144922
      4.55500000	    -10.35044955	      6.73858490	      2.02350330	     -0.19672338	     -0.01727063	      0.60448199	     28.38049335	    -11.19011053	     -5.99161034	    -62.15550517	     -2.91657112	     -0.07841529	     13.77302387	     16.67957616	     11.02063874	    -10.42672632	    -18.33383696	      6.11318576	      8.41404299	      1.31861946	      9.37500358	     -8.41521445	     -2.32869127
      4.56000000	    -10.37012881	      6.45689645	      2.41523500	     -0.19083954	     -0.01656358	      0.60408876	     29.02746853	    -11.02892583	     -6.42242821	    -61.39741162	     -2.78948309	     -0.05454276	     13.70826758	     15.98946231	     10.90060353	     -9.80079670	    -17.83776026	      6.24042135	      8.38618536	      1.17971378	      9.32465086	     -8.20800368	     -2.87893575
      4.56500000	    -10.35531064	      6.22650007	      2.81490163	     -0.18498652	     -0.01591170	      0.60372349	     29.62715999	    -10.93364030	     -6.86515210	    -60.59632586	     -2.69517667	     -0.18184663	     13.56619945	     15.25113969	     10.82627856	     -9.11916616	    -17.31559659	      6.35229811	      8.32507330	      1.00951882	      9.22494643	     -8.06192564	     -3.45545378
      4.57000000	    -10.34059131	      6.01275077	      3.18665508	     -0.17914143	     -0.01533388	      0.60339447	     30.21493743	    -10.84326459	     -7.26864084	    -59.73432375	     -2.61330742	     -0.36022546	     13.35653043	     14.51588710	     10.74700709	     -8.47786195	    -16.78920537	      6.46248934	      8.26546255	      0.84578794	      9.12935800	     -7.92502275	     -3.99423300
      4.57500000	    -10.32571687	      5.81660742	      3.54604884	     -0.17330417	     -0.01483419	      0.60309822	     30.78599715	    -10.76926707	     -7.66032208	    -58.81532929	     -2.54770508	     -0.61881424	     13.06720515	     13.78508051	     10.66551196	     -7.87690078	    -16.26477149	      6.57555532	      8.23480460	      0.70266807	      9.03426839	     -7.80456653	     -4.51546695
      4.58000000	    -10.24854732	      5.66986607	      3.88942259	     -0.16745865	     -0.01435441	      0.60279033	     31.26936210	    -10.75062361	     -8.02676231	    -57.85429145	     -2.42801874	     -0.79298756	     12.55542013	     12.96096765	     10.63361422	     -7.18223296	    -15.69341946	      6.66275665	      8.07282882	      0.46619604	      8.86939895	     -7.72570820	     -5.01828878
      4.58500000	    -10.29005246	      5.48622082	      4.20424009	     -0.16164541	     -0.01406984	      0.60261064	     31.87312856	    -10.66576876	     -8.37244932	    -56.81594730	     -2.43348078	     -1.27442574	     12.15909264	     12.32523269	     10.51234736	     -6.76494897	    -15.21304087	      6.80466571	      8.18399331	      0.42636233	      8.84365370	     -7.61666118	     -5.47654417
